<svg width="698" height="692" xmlns="http://www.w3.org/2000/svg" xmlns:xlink="http://www.w3.org/1999/xlink" xml:space="preserve" overflow="hidden"><defs><clipPath id="clip0"><rect x="0" y="0" width="698" height="692"/></clipPath></defs><g clip-path="url(#clip0)"><path d="M0 0 697.649 0 697.649 692 0 692Z" fill="#FFFFFF" transform="matrix(1.0005 0 0 1 0.353239 0.353061)"/><path d="M26.1265 353.061 11.7569 353.061C3.91898 353.061 0 356.98 0 364.818L0 679.537C0 687.375 3.91898 691.294 11.7569 691.294L26.1265 691.294" stroke="#36393D" stroke-width="0.706122" stroke-miterlimit="10" fill="#FFEAE6" transform="matrix(1.0005 0 0 1 0.353239 0.353061)"/><path d="M26.1265 691.294 685.186 691.294C693.024 691.294 696.943 687.375 696.943 679.537L696.943 364.818C696.943 356.98 693.024 353.061 685.186 353.061L26.1265 353.061" stroke="#36393D" stroke-width="0.706122" stroke-miterlimit="10" fill="#FFF0ED" transform="matrix(1.0005 0 0 1 0.353239 0.353061)"/><path d="M26.1265 353.061 26.1265 691.294" stroke="#36393D" stroke-width="0.706122" stroke-miterlimit="10" fill="none" transform="matrix(1.0005 0 0 1 0.353239 0.353061)"/><text font-family="Microsoft YaHei,Microsoft YaHei_MSFontService,sans-serif" font-weight="700" font-size="12" transform="matrix(4.32593e-17 -0.706122 0.706478 4.32375e-17 15.5425 535)">写卡区</text><path d="M138.047 401.784 138.047 415.906 137.842 414.268" stroke="#000000" stroke-width="0.706122" stroke-miterlimit="10" fill="none" transform="matrix(1.0005 0 0 1 0.353239 0.353061)"/><path d="M138.301 417.947 135.237 413.35 137.842 414.268 140.144 412.736Z" stroke="#000000" stroke-width="0.706122" stroke-miterlimit="10" transform="matrix(1.0005 0 0 1 0.353239 0.353061)"/><path d="M185.075 369.302C187.766 369.302 189.947 371.483 189.947 374.174L189.947 396.911C189.947 399.602 187.766 401.784 185.075 401.784L91.0192 401.784C88.3283 401.784 86.1469 399.602 86.1469 396.911L86.1469 374.174C86.1469 371.483 88.3283 369.302 91.0192 369.302Z" stroke="#36393D" stroke-width="0.706122" fill="#FFCCCC" transform="matrix(1.0005 0 0 1 0.353239 0.353061)"/><text font-family="Microsoft YaHei,Microsoft YaHei_MSFontService,sans-serif" font-weight="400" font-size="12" transform="matrix(0.706478 0 0 0.706122 98.9069 388)">发送</text><text font-family="Arial,Arial_MSFontService,sans-serif" font-weight="400" font-size="12" transform="matrix(0.706478 0 0 0.706122 115.862 388)">APDU</text><text font-family="Microsoft YaHei,Microsoft YaHei_MSFontService,sans-serif" font-weight="400" font-size="12" transform="matrix(0.706478 0 0 0.706122 139.176 388)">到</text><text font-family="Arial,Arial_MSFontService,sans-serif" font-weight="400" font-size="12" transform="matrix(0.706478 0 0 0.706122 147.654 388)">Reader</text><path d="M197.644 450.605 197.594 451.918 254.91 451.918 254.91 385.543 194.445 385.543" stroke="#000000" stroke-width="0.706122" stroke-miterlimit="10" fill="none" transform="matrix(1.0005 0 0 1 0.353239 0.353061)"/><path d="M190.738 385.543 195.681 383.071 194.445 385.543 195.681 388.014Z" stroke="#000000" stroke-width="0.706122" stroke-miterlimit="10" transform="matrix(1.0005 0 0 1 0.353239 0.353061)"/><text font-family="Microsoft YaHei,Microsoft YaHei_MSFontService,sans-serif" font-weight="400" font-size="12" transform="matrix(0.706478 0 0 0.706122 252.919 426)">否</text><path d="M138.4 482.988 138.4 497.11 138.4 478.751 138.4 488.375" stroke="#000000" stroke-width="0.706122" stroke-miterlimit="10" fill="none" transform="matrix(1.0005 0 0 1 0.353239 0.353061)"/><path d="M138.4 492.083 135.929 487.14 138.4 488.375 140.871 487.14Z" stroke="#000000" stroke-width="0.706122" stroke-miterlimit="10" transform="matrix(1.0005 0 0 1 0.353239 0.353061)"/><path d="M106.271 434.795 132.087 421.887C136.296 419.783 140.504 419.783 144.713 421.887L196.344 447.703C200.553 449.807 200.553 451.911 196.344 454.016L144.713 479.831C140.504 481.936 136.296 481.936 132.087 479.831L80.4556 454.016C76.2471 451.911 76.2471 449.807 80.4556 447.703Z" stroke="#36393D" stroke-width="0.706122" stroke-miterlimit="10" fill="#FFCCCC" transform="matrix(1.0005 0 0 1 0.353239 0.353061)"/><text font-family="Microsoft YaHei,Microsoft YaHei_MSFontService,sans-serif" font-weight="400" font-size="12" transform="matrix(0.706478 0 0 0.706122 105.618 453)">收到返回</text><text font-family="Arial,Arial_MSFontService,sans-serif" font-weight="400" font-size="12" transform="matrix(0.706478 0 0 0.706122 139.529 453)">APDU</text><text font-family="Microsoft YaHei,Microsoft YaHei_MSFontService,sans-serif" font-weight="400" font-size="12" transform="matrix(0.706478 0 0 0.706122 162.843 453)">？</text><path d="M138.753 606.559 138.753 616.184" stroke="#000000" stroke-width="0.706122" stroke-miterlimit="10" fill="none" transform="matrix(1.0005 0 0 1 0.353239 0.353061)"/><path d="M138.753 619.891 136.282 614.948 138.753 616.184 141.224 614.948Z" stroke="#000000" stroke-width="0.706122" stroke-miterlimit="10" transform="matrix(1.0005 0 0 1 0.353239 0.353061)"/><path d="M185.781 574.078C188.472 574.078 190.653 576.259 190.653 578.95L190.653 601.687C190.653 604.378 188.472 606.559 185.781 606.559L91.7253 606.559C89.0344 606.559 86.8531 604.378 86.8531 601.687L86.8531 578.95C86.8531 576.259 89.0344 574.078 91.7253 574.078Z" stroke="#36393D" stroke-width="0.706122" fill="#FFCCCC" transform="matrix(1.0005 0 0 1 0.353239 0.353061)"/><text font-family="Arial,Arial_MSFontService,sans-serif" font-weight="400" font-size="12" transform="matrix(0.706478 0 0 0.706122 98.2004 593)">Send APUD to Phone</text><path d="M78.3867 653.389 46.6041 653.396 46.6041 385.543 81.6489 385.543" stroke="#000000" stroke-width="0.706122" stroke-miterlimit="10" fill="none" transform="matrix(1.0005 0 0 1 0.353239 0.353061)"/><path d="M85.3561 385.543 80.4132 388.014 81.6489 385.543 80.4132 383.071Z" stroke="#000000" stroke-width="0.706122" stroke-miterlimit="10" transform="matrix(1.0005 0 0 1 0.353239 0.353061)"/><text font-family="Microsoft YaHei,Microsoft YaHei_MSFontService,sans-serif" font-weight="400" font-size="12" transform="matrix(0.706478 0 0 0.706122 43.0951 580)">是</text><path d="M106.271 636.746 132.087 623.838C136.296 621.734 140.504 621.734 144.713 623.838L196.344 649.654C200.553 651.758 200.553 653.862 196.344 655.967L144.713 681.782C140.504 683.887 136.296 683.887 132.087 681.782L80.4556 655.967C76.2471 653.862 76.2471 651.758 80.4556 649.654Z" stroke="#36393D" stroke-width="0.706122" stroke-miterlimit="10" fill="#FFCCCC" transform="matrix(1.0005 0 0 1 0.353239 0.353061)"/><text font-family="Microsoft YaHei,Microsoft YaHei_MSFontService,sans-serif" font-weight="400" font-size="12" transform="matrix(0.706478 0 0 0.706122 105.618 655)">收到响应</text><text font-family="Arial,Arial_MSFontService,sans-serif" font-weight="400" font-size="12" transform="matrix(0.706478 0 0 0.706122 139.529 655)">APDU</text><text font-family="Microsoft YaHei,Microsoft YaHei_MSFontService,sans-serif" font-weight="400" font-size="12" transform="matrix(0.706478 0 0 0.706122 162.843 655)">？</text><path d="M202.657 525.002 454.482 525.002" stroke="#FF33FF" stroke-width="0.706122" stroke-miterlimit="10" fill="none" transform="matrix(1.0005 0 0 1 0.353239 0.353061)"/><path d="M458.189 525.002 453.246 527.473 454.482 525.002 453.246 522.531Z" stroke="#FF33FF" stroke-width="0.706122" stroke-miterlimit="10" fill="#FF33FF" transform="matrix(1.0005 0 0 1 0.353239 0.353061)"/><text font-family="Microsoft YaHei,Microsoft YaHei_MSFontService,sans-serif" font-weight="400" font-size="12" transform="matrix(0.706478 0 0 0.706122 269.874 528)">是</text><path d="M106.271 508.938 132.087 496.03C136.296 493.926 140.504 493.926 144.713 496.03L196.344 521.846C200.553 523.95 200.553 526.054 196.344 528.158L144.713 553.974C140.504 556.078 136.296 556.078 132.087 553.974L80.4556 528.158C76.2471 526.054 76.2471 523.95 80.4556 521.846Z" stroke="#36393D" stroke-width="0.706122" stroke-miterlimit="10" fill="#FFCCCC" transform="matrix(1.0005 0 0 1 0.353239 0.353061)"/><text font-family="Microsoft YaHei,Microsoft YaHei_MSFontService,sans-serif" font-weight="400" font-size="12" transform="matrix(0.706478 0 0 0.706122 115.509 527)">收到</text><text font-family="Arial,Arial_MSFontService,sans-serif" font-weight="400" font-size="12" transform="matrix(0.706478 0 0 0.706122 132.465 527)">HALT</text><text font-family="Microsoft YaHei,Microsoft YaHei_MSFontService,sans-serif" font-weight="400" font-size="12" transform="matrix(0.706478 0 0 0.706122 152.952 527)">？</text><path d="M138.4 555.655 138.591 570.427" stroke="#000000" stroke-width="0.706122" stroke-miterlimit="10" fill="none" transform="matrix(1.0005 0 0 1 0.353239 0.353061)"/><path d="M138.64 574.134 136.105 569.219 138.591 570.427 141.048 569.156Z" stroke="#000000" stroke-width="0.706122" stroke-miterlimit="10" transform="matrix(1.0005 0 0 1 0.353239 0.353061)"/><text font-family="Microsoft YaHei,Microsoft YaHei_MSFontService,sans-serif" font-weight="400" font-size="12" transform="matrix(0.706478 0 0 0.706122 134.937 565)">否</text><path d="M510.88 541.243 510.88 556.304 450.859 556.304 450.859 566.755" stroke="#000000" stroke-width="0.706122" stroke-miterlimit="10" fill="none" transform="matrix(1.0005 0 0 1 0.353239 0.353061)"/><path d="M450.859 570.462 448.388 565.519 450.859 566.755 453.331 565.519Z" stroke="#000000" stroke-width="0.706122" stroke-miterlimit="10" transform="matrix(1.0005 0 0 1 0.353239 0.353061)"/><path d="M557.907 508.761C560.598 508.761 562.78 510.943 562.78 513.633L562.78 536.371C562.78 539.062 560.598 541.243 557.907 541.243L463.852 541.243C461.161 541.243 458.98 539.062 458.98 536.371L458.98 513.633C458.98 510.943 461.161 508.761 463.852 508.761Z" stroke="#36393D" stroke-width="0.706122" fill="#FFCCCC" transform="matrix(1.0005 0 0 1 0.353239 0.353061)"/><text font-family="Arial,Arial_MSFontService,sans-serif" font-weight="400" font-size="12" transform="matrix(0.706478 0 0 0.706122 463.096 527)">Transaction OK to Phone</text><path d="M497.887 571.253C500.578 571.253 502.759 573.434 502.759 576.125L502.759 598.862C502.759 601.553 500.578 603.735 497.887 603.735L403.831 603.735C401.141 603.735 398.959 601.553 398.959 598.862L398.959 576.125C398.959 573.434 401.141 571.253 403.831 571.253Z" stroke="#36393D" stroke-width="0.706122" fill="#FFCCCC" transform="matrix(1.0005 0 0 1 0.353239 0.353061)"/><text font-family="Arial,Arial_MSFontService,sans-serif" font-weight="400" font-size="12" transform="matrix(0.706478 0 0 0.706122 409.051 590)">Phone</text><text font-family="Microsoft YaHei,Microsoft YaHei_MSFontService,sans-serif" font-weight="400" font-size="12" transform="matrix(0.706478 0 0 0.706122 434.484 590)">蓝牙进出站切换</text><path d="M622.871 571.253C625.561 571.253 627.743 573.434 627.743 576.125L627.743 598.862C627.743 601.553 625.561 603.735 622.871 603.735L528.815 603.735C526.124 603.735 523.943 601.553 523.943 598.862L523.943 576.125C523.943 573.434 526.124 571.253 528.815 571.253Z" stroke="#36393D" stroke-width="0.706122" fill="#FFCCCC" transform="matrix(1.0005 0 0 1 0.353239 0.353061)"/><text font-family="Arial,Arial_MSFontService,sans-serif" font-weight="400" font-size="12" transform="matrix(0.706478 0 0 0.706122 540.455 590)">UWB</text><text font-family="Microsoft YaHei,Microsoft YaHei_MSFontService,sans-serif" font-weight="400" font-size="12" transform="matrix(0.706478 0 0 0.706122 560.237 590)">清除用户信息</text><path d="M510.527 556.424 579.373 556.778 579.133 566.755" stroke="#000000" stroke-width="0.706122" stroke-miterlimit="10" fill="none" transform="matrix(1.0005 0 0 1 0.353239 0.353061)"/><path d="M579.042 570.462 576.69 565.463 579.133 566.755 581.633 565.583Z" stroke="#000000" stroke-width="0.706122" stroke-miterlimit="10" transform="matrix(1.0005 0 0 1 0.353239 0.353061)"/><path d="M63.551 16.2408 63.551 0 346 0 346 16.2408" stroke="#6C8EBF" stroke-width="0.706122" stroke-miterlimit="10" fill="#DAE8FC" transform="matrix(1.0005 0 0 1 0.353239 0.353061)"/><path d="M63.551 16.2408 63.551 334.702 346 334.702 346 16.2408" stroke="#6C8EBF" stroke-width="0.706122" stroke-miterlimit="10" fill="#DEF0F9" transform="matrix(1.0005 0 0 1 0.353239 0.353061)"/><path d="M63.551 16.2408 346 16.2408" stroke="#6C8EBF" stroke-width="0.706122" stroke-miterlimit="10" fill="none" transform="matrix(1.0005 0 0 1 0.353239 0.353061)"/><text font-family="Microsoft YaHei,Microsoft YaHei_MSFontService,sans-serif" font-weight="700" font-size="12" transform="matrix(0.706478 0 0 0.706122 192.162 11)">读卡区</text><path d="M248.555 96.0327 248.555 110.155 248.555 98.8571 248.555 108.482" stroke="#000000" stroke-width="0.706122" stroke-miterlimit="10" fill="none" transform="matrix(1.0005 0 0 1 0.353239 0.353061)"/><path d="M248.555 112.189 246.084 107.246 248.555 108.482 251.027 107.246Z" stroke="#000000" stroke-width="0.706122" stroke-miterlimit="10" transform="matrix(1.0005 0 0 1 0.353239 0.353061)"/><text font-family="Microsoft YaHei,Microsoft YaHei_MSFontService,sans-serif" font-weight="400" font-size="12" transform="matrix(0.706478 0 0 0.706122 243.735 105)">是</text><path d="M248.555 39.5429 292.335 67.7878 248.555 96.0327 204.776 67.7878Z" stroke="#36393D" stroke-width="0.706122" stroke-miterlimit="10" fill="#CCE5FF" transform="matrix(1.0005 0 0 1 0.353239 0.353061)"/><text font-family="Microsoft YaHei,Microsoft YaHei_MSFontService,sans-serif" font-weight="400" font-size="12" transform="matrix(0.706478 0 0 0.706122 229.252 71)">认证完成</text><text font-family="Arial,Arial_MSFontService,sans-serif" font-weight="400" font-size="12" transform="matrix(0.706478 0 0 0.706122 263.163 71)">?</text><path d="M206.188 134.163 177.498 134.163" stroke="#000000" stroke-width="0.706122" stroke-miterlimit="10" fill="none" transform="matrix(1.0005 0 0 1 0.353239 0.353061)"/><path d="M173.791 134.163 178.734 131.692 177.498 134.163 178.734 136.635Z" stroke="#000000" stroke-width="0.706122" stroke-miterlimit="10" transform="matrix(1.0005 0 0 1 0.353239 0.353061)"/><path d="M284.567 112.98C288.077 112.98 290.922 115.825 290.922 119.335L290.922 148.992C290.922 152.502 288.077 155.347 284.567 155.347L212.543 155.347C209.033 155.347 206.188 152.502 206.188 148.992L206.188 119.335C206.188 115.825 209.033 112.98 212.543 112.98Z" stroke="#36393D" stroke-width="0.706122" fill="#CCE5FF" transform="matrix(1.0005 0 0 1 0.353239 0.353061)"/><text font-family="Microsoft YaHei,Microsoft YaHei_MSFontService,sans-serif" font-weight="400" font-size="12" transform="matrix(0.706478 0 0 0.706122 220.068 137)">发送读卡</text><text font-family="Arial,Arial_MSFontService,sans-serif" font-weight="400" font-size="12" transform="matrix(0.706478 0 0 0.706122 253.979 137)">APDU</text><path d="M130.633 241.494 130.633 274.42" stroke="#000000" stroke-width="0.706122" stroke-miterlimit="10" fill="none" transform="matrix(1.0005 0 0 1 0.353239 0.353061)"/><path d="M130.633 278.128 128.161 273.185 130.633 274.42 133.104 273.185Z" stroke="#000000" stroke-width="0.706122" stroke-miterlimit="10" transform="matrix(1.0005 0 0 1 0.353239 0.353061)"/><text font-family="Microsoft YaHei,Microsoft YaHei_MSFontService,sans-serif" font-weight="400" font-size="12" transform="matrix(0.706478 0 0 0.706122 127.872 263)">是</text><path d="M173 213.249 249.614 213.249 249.289 161.963" stroke="#000000" stroke-width="0.706122" stroke-miterlimit="10" fill="none" transform="matrix(1.0005 0 0 1 0.353239 0.353061)"/><path d="M249.268 158.256 251.768 163.185 249.289 161.963 246.825 163.213Z" stroke="#000000" stroke-width="0.706122" stroke-miterlimit="10" transform="matrix(1.0005 0 0 1 0.353239 0.353061)"/><text font-family="Microsoft YaHei,Microsoft YaHei_MSFontService,sans-serif" font-weight="400" font-size="12" transform="matrix(0.706478 0 0 0.706122 208.411 217)">否</text><path d="M109.449 199.127 124.758 188.923C128.675 186.31 132.591 186.31 136.508 188.923L167.125 209.33C171.042 211.943 171.042 214.555 167.125 217.168L136.508 237.575C132.591 240.188 128.675 240.188 124.758 237.575L94.1403 217.168C90.2234 214.555 90.2234 211.943 94.1403 209.33Z" stroke="#36393D" stroke-width="0.706122" stroke-miterlimit="10" fill="#CCE5FF" transform="matrix(1.0005 0 0 1 0.353239 0.353061)"/><text font-family="Microsoft YaHei,Microsoft YaHei_MSFontService,sans-serif" font-weight="400" font-size="12" transform="matrix(0.706478 0 0 0.706122 113.743 216)">校验通过</text><path d="M167.916 278.918C170.724 278.918 173 281.195 173 284.002L173 307.728C173 310.536 170.724 312.812 167.916 312.812L93.3494 312.812C90.5415 312.812 88.2653 310.536 88.2653 307.728L88.2653 284.002C88.2653 281.195 90.5415 278.918 93.3494 278.918Z" stroke="#36393D" stroke-width="0.706122" fill="#CCE5FF" transform="matrix(1.0005 0 0 1 0.353239 0.353061)"/><text font-family="Microsoft YaHei,Microsoft YaHei_MSFontService,sans-serif" font-weight="400" font-size="12" transform="matrix(0.706478 0 0 0.706122 109.504 299)">保存卡信息</text><path d="M130.633 155.347 130.633 180.506" stroke="#000000" stroke-width="0.706122" stroke-miterlimit="10" fill="none" transform="matrix(1.0005 0 0 1 0.353239 0.353061)"/><path d="M130.633 184.213 128.161 179.27 130.633 180.506 133.104 179.27Z" stroke="#000000" stroke-width="0.706122" stroke-miterlimit="10" transform="matrix(1.0005 0 0 1 0.353239 0.353061)"/><path d="M166.645 112.98C170.155 112.98 173 115.825 173 119.335L173 148.992C173 152.502 170.155 155.347 166.645 155.347L94.6204 155.347C91.1106 155.347 88.2653 152.502 88.2653 148.992L88.2653 119.335C88.2653 115.825 91.1106 112.98 94.6204 112.98Z" stroke="#36393D" stroke-width="0.706122" fill="#CCE5FF" transform="matrix(1.0005 0 0 1 0.353239 0.353061)"/><text font-family="Microsoft YaHei,Microsoft YaHei_MSFontService,sans-serif" font-weight="400" font-size="12" transform="matrix(0.706478 0 0 0.706122 109.504 137)">收到卡信息</text><path d="M139.106 314.224 139.459 341.41 139.756 363.392" stroke="#000000" stroke-width="0.706122" stroke-miterlimit="10" fill="none" transform="matrix(1.0005 0 0 1 0.353239 0.353061)"/><path d="M139.805 367.099 137.263 362.191 139.756 363.392 142.206 362.128Z" stroke="#000000" stroke-width="0.706122" stroke-miterlimit="10" transform="matrix(1.0005 0 0 1 0.353239 0.353061)"/><path d="M173 67.0816 188.888 67.0816 200.285 67.59" stroke="#000000" stroke-width="0.706122" stroke-miterlimit="10" fill="none" transform="matrix(1.0005 0 0 1 0.353239 0.353061)"/><path d="M203.985 67.7524 198.936 70.005 200.285 67.59 199.162 65.0621Z" stroke="#000000" stroke-width="0.706122" stroke-miterlimit="10" transform="matrix(1.0005 0 0 1 0.353239 0.353061)"/><path d="M168.128 50.8408C170.819 50.8408 173 53.0222 173 55.7131L173 78.4502C173 81.1411 170.819 83.3224 168.128 83.3224L93.1376 83.3224C90.4467 83.3224 88.2653 81.1411 88.2653 78.4502L88.2653 55.7131C88.2653 53.0222 90.4467 50.8408 93.1376 50.8408Z" stroke="#36393D" stroke-width="0.706122" fill="#CCE5FF" transform="matrix(1.0005 0 0 1 0.353239 0.353061)"/><text font-family="Microsoft YaHei,Microsoft YaHei_MSFontService,sans-serif" font-weight="400" font-size="12" transform="matrix(0.706478 0 0 0.706122 109.504 70)">进入读卡区</text><path d="M362.241 16.2408 362.241 0 644.69 0 644.69 16.2408" stroke="#82B366" stroke-width="0.706122" stroke-miterlimit="10" fill="#D5E8D4" transform="matrix(1.0005 0 0 1 0.353239 0.353061)"/><path d="M362.241 16.2408 362.241 334.702 644.69 334.702 644.69 16.2408" stroke="#82B366" stroke-width="0.706122" stroke-miterlimit="10" fill="#F2F8F9" transform="matrix(1.0005 0 0 1 0.353239 0.353061)"/><path d="M362.241 16.2408 644.69 16.2408" stroke="#82B366" stroke-width="0.706122" stroke-miterlimit="10" fill="none" transform="matrix(1.0005 0 0 1 0.353239 0.353061)"/><text font-family="Microsoft YaHei,Microsoft YaHei_MSFontService,sans-serif" font-weight="700" font-size="12" transform="matrix(0.706478 0 0 0.706122 491.002 11)">认证区</text><path d="M547.245 57.1959 547.245 71.3184 547.245 58.6082 547.245 68.2326" stroke="#000000" stroke-width="0.706122" stroke-miterlimit="10" fill="none" transform="matrix(1.0005 0 0 1 0.353239 0.353061)"/><path d="M547.245 71.9398 544.773 66.9969 547.245 68.2326 549.716 66.9969Z" stroke="#000000" stroke-width="0.706122" stroke-miterlimit="10" transform="matrix(1.0005 0 0 1 0.353239 0.353061)"/><path d="M585.27 28.2449C587.668 28.2449 589.612 30.1892 589.612 32.5876L589.612 52.8533C589.612 55.2516 587.668 57.1959 585.27 57.1959L509.22 57.1959C506.822 57.1959 504.878 55.2516 504.878 52.8533L504.878 32.5876C504.878 30.1892 506.822 28.2449 509.22 28.2449Z" stroke="#82B366" stroke-width="0.706122" fill="#D5E8D4" transform="matrix(1.0005 0 0 1 0.353239 0.353061)"/><text font-family="Microsoft YaHei,Microsoft YaHei_MSFontService,sans-serif" font-weight="400" font-size="12" transform="matrix(0.706478 0 0 0.706122 522.087 45)">进入认证区域</text><path d="M547.245 129.22 547.245 143.343 547.245 139.106 547.245 148.731" stroke="#000000" stroke-width="0.706122" stroke-miterlimit="10" fill="none" transform="matrix(1.0005 0 0 1 0.353239 0.353061)"/><path d="M547.245 152.438 544.773 147.495 547.245 148.731 549.716 147.495Z" stroke="#000000" stroke-width="0.706122" stroke-miterlimit="10" transform="matrix(1.0005 0 0 1 0.353239 0.353061)"/><text font-family="Arial,Arial_MSFontService,sans-serif" font-weight="400" font-size="11" transform="matrix(0.706478 0 0 0.706122 542.575 143)">Fail</text><text font-family="Microsoft YaHei,Microsoft YaHei_MSFontService,sans-serif" font-weight="400" font-size="12" transform="matrix(0.706478 0 0 0.706122 541.868 143)">失败</text><path d="M503.465 100.976 424.38 100.976 424.38 148.731" stroke="#000000" stroke-width="0.706122" stroke-miterlimit="10" fill="none" transform="matrix(1.0005 0 0 1 0.353239 0.353061)"/><path d="M424.38 152.438 421.908 147.495 424.38 148.731 426.851 147.495Z" stroke="#000000" stroke-width="0.706122" stroke-miterlimit="10" transform="matrix(1.0005 0 0 1 0.353239 0.353061)"/><path d="M547.245 72.7306 591.024 100.976 547.245 129.22 503.465 100.976Z" stroke="#82B366" stroke-width="0.706122" stroke-miterlimit="10" fill="#D5E8D4" transform="matrix(1.0005 0 0 1 0.353239 0.353061)"/><text font-family="Microsoft YaHei,Microsoft YaHei_MSFontService,sans-serif" font-weight="400" font-size="12" transform="matrix(0.706478 0 0 0.706122 530.565 104)">发起认证</text><path d="M547.245 195.596 547.245 209.718 547.245 199.127 547.245 208.751" stroke="#000000" stroke-width="0.706122" stroke-miterlimit="10" fill="none" transform="matrix(1.0005 0 0 1 0.353239 0.353061)"/><path d="M547.245 212.458 544.773 207.515 547.245 208.751 549.716 207.515Z" stroke="#000000" stroke-width="0.706122" stroke-miterlimit="10" transform="matrix(1.0005 0 0 1 0.353239 0.353061)"/><path d="M583.257 153.229C586.767 153.229 589.612 156.074 589.612 159.584L589.612 189.241C589.612 192.751 586.767 195.596 583.257 195.596L511.233 195.596C507.723 195.596 504.878 192.751 504.878 189.241L504.878 159.584C504.878 156.074 507.723 153.229 511.233 153.229Z" stroke="#82B366" stroke-width="0.706122" fill="#D5E8D4" transform="matrix(1.0005 0 0 1 0.353239 0.353061)"/><text font-family="Microsoft YaHei,Microsoft YaHei_MSFontService,sans-serif" font-weight="400" font-size="12" transform="matrix(0.706478 0 0 0.706122 530.565 177)">重新认证</text><path d="M547.245 269.739 547.245 283.861 547.245 276.094 547.245 285.718" stroke="#000000" stroke-width="0.706122" stroke-miterlimit="10" fill="none" transform="matrix(1.0005 0 0 1 0.353239 0.353061)"/><path d="M547.245 289.425 544.773 284.483 547.245 285.718 549.716 284.483Z" stroke="#000000" stroke-width="0.706122" stroke-miterlimit="10" transform="matrix(1.0005 0 0 1 0.353239 0.353061)"/><text font-family="Microsoft YaHei,Microsoft YaHei_MSFontService,sans-serif" font-weight="400" font-size="12" transform="matrix(0.706478 0 0 0.706122 543.281 278)">是</text><path d="M589.612 241.494 629.861 241.494 629.861 100.976 595.523 100.976" stroke="#000000" stroke-width="0.706122" stroke-miterlimit="10" fill="none" transform="matrix(1.0005 0 0 1 0.353239 0.353061)"/><path d="M591.815 100.976 596.758 98.5041 595.523 100.976 596.758 103.447Z" stroke="#000000" stroke-width="0.706122" stroke-miterlimit="10" transform="matrix(1.0005 0 0 1 0.353239 0.353061)"/><text font-family="Microsoft YaHei,Microsoft YaHei_MSFontService,sans-serif" font-weight="400" font-size="12" transform="matrix(0.706478 0 0 0.706122 628.059 167)">否</text><path d="M526.061 227.371 541.37 217.168C545.287 214.555 549.203 214.555 553.12 217.168L583.737 237.575C587.654 240.188 587.654 242.8 583.737 245.413L553.12 265.82C549.203 268.432 545.287 268.432 541.37 265.82L510.753 245.413C506.836 242.8 506.836 240.188 510.753 237.575Z" stroke="#82B366" stroke-width="0.706122" stroke-miterlimit="10" fill="#D5E8D4" transform="matrix(1.0005 0 0 1 0.353239 0.353061)"/><text font-family="Microsoft YaHei,Microsoft YaHei_MSFontService,sans-serif" font-weight="400" font-size="12" transform="matrix(0.706478 0 0 0.706122 531.978 244)">失败</text><text font-family="Arial,Arial_MSFontService,sans-serif" font-weight="400" font-size="12" transform="matrix(0.706478 0 0 0.706122 548.933 244)"> </text><text font-family="Arial,Arial_MSFontService,sans-serif" font-weight="400" font-size="12" transform="matrix(0.706478 0 0 0.706122 551.053 244)">&gt; </text><text font-family="Arial,Arial_MSFontService,sans-serif" font-weight="400" font-size="12" transform="matrix(0.706478 0 0 0.706122 558.117 244)">5</text><path d="M584.528 290.216C587.336 290.216 589.612 292.493 589.612 295.3L589.612 319.026C589.612 321.834 587.336 324.11 584.528 324.11L509.962 324.11C507.154 324.11 504.878 321.834 504.878 319.026L504.878 295.3C504.878 292.493 507.154 290.216 509.962 290.216Z" stroke="#82B366" stroke-width="0.706122" fill="#D5E8D4" transform="matrix(1.0005 0 0 1 0.353239 0.353061)"/><text font-family="Microsoft YaHei,Microsoft YaHei_MSFontService,sans-serif" font-weight="400" font-size="12" transform="matrix(0.706478 0 0 0.706122 522.087 310)">通知应用重启</text><path d="M460.392 153.229C463.902 153.229 466.747 156.074 466.747 159.584L466.747 189.241C466.747 192.751 463.902 195.596 460.392 195.596L388.367 195.596C384.858 195.596 382.012 192.751 382.012 189.241L382.012 159.584C382.012 156.074 384.858 153.229 388.367 153.229Z" stroke="#82B366" stroke-width="0.706122" fill="#D5E8D4" transform="matrix(1.0005 0 0 1 0.353239 0.353061)"/><text font-family="Microsoft YaHei,Microsoft YaHei_MSFontService,sans-serif" font-weight="400" font-size="12" transform="matrix(0.706478 0 0 0.706122 407.638 177)">认证完成</text><path d="M297.278 67.7878 531.625 67.7878" stroke="#000000" stroke-width="0.706122" stroke-miterlimit="10" fill="none" transform="matrix(1.0005 0 0 1 0.353239 0.353061)"/><path d="M536.568 67.7878 531.625 70.2592 531.625 65.3163Z" stroke="#000000" stroke-width="0.706122" stroke-miterlimit="10" transform="matrix(1.0005 0 0 1 0.353239 0.353061)"/><text font-family="Microsoft YaHei,Microsoft YaHei_MSFontService,sans-serif" font-weight="400" font-size="12" transform="matrix(0.706478 0 0 0.706122 385.737 70)">否</text><path d="M199.571 653.001 324.11 653.043 324.11 134.163 295.42 134.163" stroke="#000000" stroke-width="0.706122" stroke-miterlimit="10" fill="none" transform="matrix(1.0005 0 0 1 0.353239 0.353061)"/><path d="M291.713 134.163 296.656 131.692 295.42 134.163 296.656 136.635Z" stroke="#000000" stroke-width="0.706122" stroke-miterlimit="10" transform="matrix(1.0005 0 0 1 0.353239 0.353061)"/><text font-family="Microsoft YaHei,Microsoft YaHei_MSFontService,sans-serif" font-weight="400" font-size="12" transform="matrix(0.706478 0 0 0.706122 264.223 657)">否</text></g></svg>